<?xml version="1.0" encoding="utf-8"?>
<!-- Generator: Adobe Illustrator 27.5.0, SVG Export Plug-In . SVG Version: 6.00 Build 0)  -->
<svg version="1.1" xmlns="http://www.w3.org/2000/svg" xmlns:xlink="http://www.w3.org/1999/xlink" x="0px" y="0px"
	 viewBox="0 0 3710 3710" style="enable-background:new 0 0 3710 3710;" xml:space="preserve">
<g id="Background">
	<g>
		<g>
			<rect style="fill:#FFFFFF;" width="3710" height="3710"/>
		</g>
	</g>
</g>
<g id="Illustration">
	<g>
		<linearGradient id="SVGID_1_" gradientUnits="userSpaceOnUse" x1="3373.2861" y1="3510.8611" x2="1394.6743" y2="1375.2164">
			<stop  offset="0" style="stop-color:#DAE3FE"/>
			<stop  offset="1" style="stop-color:#E9EFFD"/>
		</linearGradient>
		<path style="fill:url(#SVGID_1_);" d="M3097.554,2293.837c-271.876,635.478-989.54,908.43-1551.841,861.891
			c-153.531-12.707-462.439-38.274-703.637-266.367C378.872,2451.324,450.21,1535.704,893.629,996.637
			c57.103-69.42,452.363-534.532,1068.302-528.306c450.957,4.558,767.479,259.298,805.967,291.033
			c48.62,40.091,155.858,135.359,252.504,286.496C3247.487,1400.979,3267.449,1896.727,3097.554,2293.837z"/>
		<g>
			<g style="opacity:0.53;">
				<rect x="460.198" y="1900.281" style="fill:#FFFFFF;" width="297.57" height="1205.819"/>
			</g>
			<g style="opacity:0.53;">
				<rect x="846.26" y="1900.281" style="fill:#FFFFFF;" width="297.57" height="1205.819"/>
			</g>
			<g style="opacity:0.53;">
				<rect x="1257.923" y="1900.281" style="fill:#FFFFFF;" width="297.57" height="1205.819"/>
			</g>
			<g style="opacity:0.53;">
				<rect x="1668.642" y="1900.281" style="fill:#FFFFFF;" width="297.57" height="1205.819"/>
			</g>
			<g style="opacity:0.53;">
				<rect x="2079.36" y="1900.281" style="fill:#FFFFFF;" width="297.57" height="1205.819"/>
			</g>
			<g style="opacity:0.53;">
				<rect x="2495.451" y="1900.281" style="fill:#FFFFFF;" width="297.57" height="1205.819"/>
			</g>
			<g style="opacity:0.53;">
				<rect x="2904.573" y="1900.281" style="fill:#FFFFFF;" width="297.57" height="1205.819"/>
			</g>
			<rect x="460.198" y="2810.364" style="fill:#BDD0FB;" width="295.736" height="295.736"/>
			<rect x="847.177" y="2690.916" style="fill:#BDD0FB;" width="295.736" height="415.184"/>
			<rect x="1259.886" y="2572.274" style="fill:#BDD0FB;" width="295.736" height="534.682"/>
			<rect x="1664.429" y="2455.404" style="fill:#BDD0FB;" width="307.59" height="651.552"/>
			<rect x="2074.827" y="2280.662" style="fill:#BDD0FB;" width="307.59" height="826.294"/>
			<rect x="2490.441" y="2088.229" style="fill:#BDD0FB;" width="307.59" height="1022.868"/>
			<rect x="2895.186" y="1976.698" style="fill:#BDD0FB;" width="307.59" height="1134.399"/>
			<path style="fill:#BDD0FB;" d="M3044.428,1602.42c-36.979,59.906-176.826,309.214-219.994,386.319
				c-5.685,10.154,1.771,22.63,13.407,22.472l400.313-5.415c8.651-0.117,14.236-9.199,10.437-16.972l-188.473-385.61
				C3057.015,1596.869,3048.139,1596.409,3044.428,1602.42z"/>
		</g>
		<g>
			<g>
				<g>
					
						<linearGradient id="SVGID_00000002370704274953460900000009335503976217424795_" gradientUnits="userSpaceOnUse" x1="2343.821" y1="2179.6545" x2="2912.1489" y2="2179.6545" gradientTransform="matrix(0.9386 -0.3449 0.3449 0.9386 -815.3701 606.2055)">
						<stop  offset="0" style="stop-color:#DAE3FE"/>
						<stop  offset="1" style="stop-color:#E9EFFD"/>
					</linearGradient>
					<path style="fill:url(#SVGID_00000002370704274953460900000009335503976217424795_);" d="M2224.94,2050.098
						c-4.727,1.737-10.1-0.344-12.367-4.963c-4.962-10.102-9.557-20.57-13.66-31.112c-1.996-5.129,0.542-10.905,5.669-12.9
						c0.062-0.023,0.122-0.045,0.183-0.067c5.081-1.867,10.745,0.671,12.717,5.738c3.897,10.016,8.264,19.959,12.976,29.555
						c2.426,4.938,0.389,10.911-4.552,13.336C2225.589,2049.843,2225.265,2049.979,2224.94,2050.098z M2195.608,1968.406
						c-0.365,0.134-0.744,0.249-1.133,0.342c-5.352,1.278-10.728-2.025-12.007-7.376c-2.623-10.994-4.803-22.209-6.477-33.332
						c-0.819-5.442,2.91-10.498,8.368-11.338c5.442-0.818,10.516,2.932,11.334,8.369c1.592,10.573,3.663,21.226,6.159,31.674
						C2203.038,1961.708,2200.282,1966.688,2195.608,1968.406z M2184.994,1882.287c-1.041,0.383-2.165,0.596-3.338,0.609
						c-5.502,0.052-10.007-4.363-10.062-9.865c-0.113-11.278,0.264-22.703,1.122-33.955c0.422-5.487,5.21-9.589,10.692-9.178
						c5.486,0.418,9.596,5.207,9.177,10.692c-0.815,10.686-1.173,21.531-1.066,32.244
						C2191.563,1877.162,2188.837,1880.875,2184.994,1882.287z M2193.904,1795.939c-1.721,0.632-3.636,0.797-5.559,0.376
						c-5.375-1.176-8.778-6.49-7.602-11.864c2.417-11.026,5.338-22.079,8.683-32.853c1.635-5.249,7.215-8.186,12.471-6.56
						c5.254,1.631,8.19,7.215,6.56,12.471c-3.177,10.231-5.954,20.73-8.247,31.208
						C2199.453,1792.167,2196.993,1794.804,2193.904,1795.939z M2221.846,1713.747c-2.413,0.887-5.165,0.844-7.674-0.336
						c-4.981-2.341-7.121-8.276-4.779-13.254c4.79-10.189,10.083-20.319,15.736-30.099c2.749-4.767,8.843-6.4,13.61-3.645
						c4.763,2.753,6.395,8.846,3.643,13.613c-5.374,9.297-10.405,18.924-14.957,28.607
						C2226.265,1711.104,2224.22,1712.875,2221.846,1713.747z M2267.271,1639.789c-3.125,1.148-6.754,0.707-9.572-1.491
						c-4.339-3.386-5.113-9.644-1.73-13.984c6.935-8.892,14.34-17.6,22.007-25.873c3.743-4.037,10.045-4.275,14.081-0.534
						c4.035,3.737,4.275,10.043,0.535,14.079c-7.286,7.864-14.321,16.133-20.91,24.583
						C2270.496,1638.09,2268.957,1639.17,2267.271,1639.789z M2601.781,1491.61c-1.295,0.476-2.707,0.688-4.172,0.579
						c-10.675-0.796-21.528-1.137-32.257-1.009c-5.501,0.064-10.015-4.343-10.078-9.843c-0.067-5.502,4.341-10.016,9.844-10.081
						c11.299-0.134,22.731,0.223,33.972,1.06c5.489,0.409,9.605,5.19,9.195,10.677
						C2607.986,1487.016,2605.335,1490.304,2601.781,1491.61z M2327.917,1577.777c-3.879,1.425-8.399,0.325-11.157-3.057
						c-3.479-4.266-2.841-10.541,1.423-14.019c8.739-7.129,17.896-13.964,27.215-20.315c4.56-3.077,10.745-1.929,13.845,2.621
						c3.099,4.546,1.925,10.745-2.623,13.846c-8.851,6.03-17.545,12.521-25.844,19.29
						C2329.893,1576.86,2328.927,1577.406,2327.917,1577.777z M2515.052,1494.958c-0.617,0.227-1.265,0.399-1.941,0.502
						c-10.589,1.615-21.248,3.711-31.682,6.222c-5.351,1.286-10.732-2.007-12.019-7.355c-1.285-5.349,1.994-10.754,7.355-12.019
						c10.979-2.641,22.195-4.846,33.336-6.548c5.44-0.829,10.524,2.908,11.353,8.346
						C2522.184,1488.868,2519.407,1493.358,2515.052,1494.958z M2400.894,1530.866c-4.72,1.734-10.085-0.337-12.359-4.946
						c-2.435-4.935-0.409-10.908,4.525-13.347c10.103-4.985,20.558-9.602,31.075-13.715c0.064-0.028,0.132-0.053,0.198-0.077
						c5.074-1.864,10.73,0.664,12.71,5.721c2.006,5.126-0.521,10.905-5.647,12.909c-9.989,3.91-19.918,8.297-29.517,13.034
						C2401.554,1530.603,2401.225,1530.745,2400.894,1530.866z"/>
					
						<linearGradient id="SVGID_00000088849264364282493600000002638362634230405257_" gradientUnits="userSpaceOnUse" x1="2939.7754" y1="2029.975" x2="2972.9668" y2="2029.975" gradientTransform="matrix(0.9386 -0.3449 0.3449 0.9386 -815.3701 606.2055)">
						<stop  offset="0" style="stop-color:#DAE3FE"/>
						<stop  offset="1" style="stop-color:#E9EFFD"/>
					</linearGradient>
					<path style="fill:url(#SVGID_00000088849264364282493600000002638362634230405257_);" d="M2670.792,1503.101
						c-1.841,0.677-3.901,0.82-5.944,0.285c-4.97-1.3-10.05-2.514-15.1-3.619c-5.375-1.172-8.784-6.483-7.609-11.857
						c1.171-5.377,6.482-8.792,11.86-7.608c5.312,1.158,10.654,2.438,15.885,3.804c5.323,1.39,8.513,6.835,7.122,12.156
						C2676.149,1499.545,2673.751,1502.014,2670.792,1503.101z"/>
				</g>
				<g>
					
						<linearGradient id="SVGID_00000182514009845927612540000005052959189946846598_" gradientUnits="userSpaceOnUse" x1="3112.0503" y1="2283.6055" x2="3134.8262" y2="2283.6055" gradientTransform="matrix(0.9386 -0.3449 0.3449 0.9386 -815.3701 606.2055)">
						<stop  offset="0" style="stop-color:#DAE3FE"/>
						<stop  offset="1" style="stop-color:#E9EFFD"/>
					</linearGradient>
					<path style="fill:url(#SVGID_00000182514009845927612540000005052959189946846598_);" d="M2911.37,1688.55
						c-4.514,1.658-9.689-0.155-12.117-4.483c-2.51-4.48-5.158-8.984-7.869-13.383c-2.887-4.686-1.429-10.823,3.255-13.71
						c4.705-2.898,10.824-1.427,13.71,3.256c2.853,4.632,5.642,9.374,8.287,14.091c2.69,4.8,0.981,10.872-3.819,13.564
						C2912.346,1688.149,2911.861,1688.369,2911.37,1688.55z"/>
					
						<linearGradient id="SVGID_00000177475038098742011740000017702035299149683865_" gradientUnits="userSpaceOnUse" x1="2554.302" y1="2542.6758" x2="3139.6929" y2="2542.6758" gradientTransform="matrix(0.9386 -0.3449 0.3449 0.9386 -815.3701 606.2055)">
						<stop  offset="0" style="stop-color:#DAE3FE"/>
						<stop  offset="1" style="stop-color:#E9EFFD"/>
					</linearGradient>
					<path style="fill:url(#SVGID_00000177475038098742011740000017702035299149683865_);" d="M2707.235,2242.674
						c-4.303,1.581-8.65,3.095-13.038,4.542c-5.226,1.721-10.86-1.118-12.583-6.344s1.135-10.887,6.342-12.584
						c10.127-3.339,20.096-7.081,29.74-11.172c5.074-2.142,10.913,0.215,13.063,5.28c2.15,5.069-0.216,10.918-5.282,13.065
						C2719.513,2237.992,2713.375,2240.418,2707.235,2242.674z M2643.232,2260.232c-0.522,0.192-1.07,0.343-1.637,0.448
						c-10.931,2.022-22.07,3.602-33.105,4.696c-5.474,0.544-10.354-3.455-10.897-8.928c-0.542-5.477,3.461-10.373,8.932-10.898
						c10.481-1.04,21.062-2.543,31.45-4.461c5.41-1.001,10.607,2.575,11.607,7.983
						C2650.477,2253.917,2647.705,2258.589,2643.232,2260.232z M2772.21,2211.689c-4.409,1.62-9.485-0.068-11.98-4.247
						c-2.821-4.727-1.276-10.842,3.448-13.665c9.039-5.394,17.968-11.25,26.543-17.41c4.475-3.203,10.696-2.188,13.905,2.28
						c3.21,4.472,2.189,10.697-2.281,13.907c-9.03,6.485-18.436,12.653-27.953,18.335
						C2773.348,2211.213,2772.784,2211.479,2772.21,2211.689z M2558.021,2266.419c-1.188,0.436-2.477,0.649-3.818,0.598
						c-11.098-0.429-22.312-1.338-33.328-2.702c-5.46-0.676-9.338-5.649-8.661-11.11c0.675-5.464,5.646-9.343,11.111-8.664
						c10.46,1.294,21.107,2.158,31.647,2.564c5.498,0.21,9.784,4.843,9.571,10.34
						C2564.382,2261.602,2561.698,2265.068,2558.021,2266.419z M2840.209,2160.086c-3.617,1.329-7.837,0.483-10.662-2.489
						c-3.792-3.988-3.632-10.296,0.357-14.087c7.626-7.247,15.048-14.925,22.064-22.818c3.655-4.113,9.953-4.486,14.067-0.827
						c4.111,3.656,4.481,9.95,0.826,14.063c-7.385,8.311-15.199,16.394-23.229,24.026
						C2842.616,2158.919,2841.448,2159.631,2840.209,2160.086z M2895.24,2094.809c-2.891,1.062-6.234,0.773-8.989-1.071
						c-4.571-3.064-5.794-9.253-2.73-13.824c5.874-8.768,11.447-17.885,16.564-27.095c2.665-4.814,8.729-6.549,13.547-3.874
						c4.811,2.673,6.543,8.737,3.873,13.549c-5.385,9.695-11.25,19.288-17.432,28.513
						C2898.856,2092.821,2897.146,2094.108,2895.24,2094.809z M2934.73,2019.088c-2.199,0.808-4.689,0.848-7.045-0.069
						c-5.127-1.993-7.668-7.768-5.673-12.896c3.83-9.845,7.286-19.954,10.27-30.056c1.559-5.275,7.095-8.292,12.379-6.729
						c5.276,1.561,8.289,7.1,6.73,12.38c-3.143,10.629-6.779,21.273-10.807,31.63
						C2939.504,2016.119,2937.32,2018.136,2934.73,2019.088z M2956.765,1936.563c-1.523,0.56-3.204,0.754-4.923,0.494
						c-5.44-0.824-9.18-5.902-8.355-11.342c1.584-10.438,2.738-21.058,3.432-31.57c0.363-5.49,5.114-9.649,10.595-9.287
						c5.492,0.362,9.649,5.108,9.286,10.598c-0.73,11.073-1.947,22.259-3.613,33.245
						C2962.622,1932.424,2960.065,1935.35,2956.765,1936.563z M2960.147,1851.18c-0.857,0.315-1.772,0.515-2.728,0.583
						c-5.487,0.395-10.258-3.735-10.65-9.222c-0.756-10.503-1.969-21.111-3.61-31.537c-0.855-5.437,2.875-10.535,8.293-11.39
						c5.436-0.857,10.536,2.858,11.392,8.295c1.727,10.975,3.005,22.144,3.798,33.201
						C2966.969,1845.643,2964.209,1849.688,2960.147,1851.18z M2944.699,1767.198c-0.192,0.07-0.388,0.134-0.586,0.194
						c-5.27,1.58-10.824-1.413-12.403-6.683c-2.23-7.44-4.715-14.898-7.389-22.175c-0.968-2.634-1.965-5.253-2.984-7.851
						c-2.009-5.124,0.514-10.907,5.637-12.914c5.147-2.135,10.903,0.514,12.912,5.634c1.074,2.736,2.119,5.486,3.138,8.259
						c2.812,7.653,5.427,15.503,7.771,23.328C2952.318,1760.061,2949.603,1765.396,2944.699,1767.198z"/>
					
						<linearGradient id="SVGID_00000142167168847282513470000007637214738780383108_" gradientUnits="userSpaceOnUse" x1="2495.9531" y1="2666.0518" x2="2528.7209" y2="2666.0518" gradientTransform="matrix(0.9386 -0.3449 0.3449 0.9386 -815.3701 606.2055)">
						<stop  offset="0" style="stop-color:#DAE3FE"/>
						<stop  offset="1" style="stop-color:#E9EFFD"/>
					</linearGradient>
					<path style="fill:url(#SVGID_00000142167168847282513470000007637214738780383108_);" d="M2473.311,2253.622
						c-1.86,0.683-3.938,0.821-5.994,0.275c-5.212-1.389-10.493-2.915-15.697-4.536c-5.255-1.635-8.188-7.22-6.553-12.473
						c1.637-5.254,7.215-8.19,12.473-6.553c4.943,1.538,9.96,2.987,14.908,4.307c5.315,1.414,8.478,6.873,7.061,12.191
						C2478.64,2250.093,2476.252,2252.542,2473.311,2253.622z"/>
				</g>
				<g>
					<g>
						<path style="fill:#7D97F4;" d="M2446.075,2140.513c1.709,1.011,3.873,0.827,5.386-0.46l43.183-36.706
							c25.253,7.927,51.951,11.885,79.183,11.311l31.192,47.276c1.094,1.659,3.12,2.439,5.044,1.946l65.849-16.895
							c1.925-0.495,3.323-2.155,3.484-4.134l4.577-56.454c24.144-12.609,45.639-28.931,63.956-48.038l55.522,11.381
							c1.946,0.399,3.931-0.481,4.942-2.19l34.615-58.509c1.012-1.711,0.827-3.874-0.46-5.387l-36.706-43.183
							c7.927-25.252,11.884-51.952,11.31-79.184l47.277-31.193c1.658-1.094,2.44-3.119,1.946-5.044l-16.896-65.85
							c-0.494-1.924-2.154-3.324-4.134-3.483l-56.454-4.577c-12.608-24.145-28.93-45.64-48.037-63.956l11.381-55.523
							c0.398-1.945-0.481-3.93-2.191-4.942l-58.509-34.615c-1.71-1.013-3.873-0.827-5.387,0.459l-43.183,36.707
							c-25.252-7.928-51.952-11.885-79.184-11.311l-31.193-47.277c-1.094-1.658-3.119-2.44-5.044-1.946l-65.849,16.896
							c-1.925,0.493-3.323,2.153-3.484,4.134l-4.577,56.454c-24.145,12.608-45.64,28.931-63.956,48.037l-55.521-11.381
							c-1.946-0.4-3.932,0.481-4.943,2.19l-34.615,58.509c-1.011,1.709-0.827,3.873,0.459,5.387l36.706,43.183
							c-7.927,25.253-11.884,51.952-11.31,79.184l-47.277,31.193c-1.658,1.093-2.44,3.12-1.945,5.044l16.895,65.848
							c0.494,1.924,2.154,3.324,4.134,3.485l56.454,4.577c12.608,24.144,28.931,45.639,48.037,63.956l-11.38,55.522
							c-0.399,1.947,0.48,3.93,2.19,4.943L2446.075,2140.513z"/>
					</g>
					<path style="opacity:0.56;fill:#FFFFFF;" d="M2592.333,1930.47c-31.267,11.488-67.157-1.384-83.546-31.493
						c-18.013-33.098-5.742-74.674,27.352-92.688c16.032-8.731,34.504-10.688,52.007-5.521
						c17.506,5.165,31.954,16.839,40.679,32.872c18.014,33.098,5.742,74.674-27.351,92.688
						C2598.489,1927.952,2595.432,1929.332,2592.333,1930.47z M2550.837,1817.084c-2.415,0.887-4.777,1.954-7.079,3.206
						c-25.374,13.81-34.781,45.692-20.972,71.065c13.812,25.375,45.69,34.796,71.067,20.973
						c25.374-13.809,34.781-45.692,20.972-71.064c-6.692-12.294-17.767-21.244-31.19-25.205
						C2572.725,1812.84,2561.323,1813.231,2550.837,1817.084z"/>
					<path style="opacity:0.56;fill:#FFFFFF;" d="M2627.683,2022.63c-5.37,1.973-10.87,3.688-16.487,5.129l0,0
						c-1.768,0.455-3.544,0.879-5.326,1.277c-8.787,1.956-17.715,3.209-26.648,3.742c-0.122,0.007-0.243,0.015-0.365,0.022
						c-0.345,0.019-0.691,0.038-1.037,0.053c-0.673,0.036-1.347,0.063-2.019,0.091c-1.77,0.07-3.314-1.025-3.896-2.603
						c-0.141-0.383-0.224-0.796-0.241-1.226c-0.086-2.199,1.632-4.045,3.827-4.135c11.318-0.439,22.662-2.103,33.721-4.943
						c54.939-14.086,95.916-55.214,112.372-105.493c9.157-27.964,10.723-58.762,2.882-89.316
						c-1.374-5.358-3.008-10.608-4.892-15.729c-12.669-34.469-36.608-63.292-68.641-82.242
						c-36.794-21.769-79.865-27.907-121.273-17.282c-85.52,21.952-137.188,109.328-115.254,194.809
						c1.352,5.271,2.966,10.453,4.833,15.527c8.083,21.987,20.886,41.961,37.563,58.443c0.431,0.426,0.744,0.925,0.938,1.459
						c0.515,1.403,0.216,3.043-0.906,4.176c-1.553,1.562-4.069,1.586-5.637,0.032c-17.507-17.305-30.953-38.275-39.438-61.357
						c-1.959-5.325-3.652-10.765-5.073-16.296c-23.028-89.747,31.278-181.493,120.992-204.514
						c43.473-11.155,88.687-4.71,127.314,18.143c33.63,19.893,58.76,50.153,72.062,86.338c1.976,5.377,3.691,10.888,5.135,16.51
						c11.154,43.476,4.712,88.69-18.141,127.317C2694.149,1984.199,2663.878,2009.332,2627.683,2022.63z"/>
				</g>
			</g>
			<g>
				<g>
					
						<linearGradient id="SVGID_00000055678169708107017990000011897838551620189612_" gradientUnits="userSpaceOnUse" x1="2005.7515" y1="2652.9814" x2="2021.9502" y2="2652.9814" gradientTransform="matrix(0.9386 -0.3449 0.3449 0.9386 -815.3701 606.2055)">
						<stop  offset="0" style="stop-color:#DAE3FE"/>
						<stop  offset="1" style="stop-color:#E9EFFD"/>
					</linearGradient>
					<path style="fill:url(#SVGID_00000055678169708107017990000011897838551620189612_);" d="M1996.354,2413.809
						c-2.499,0.918-5.399,0.134-7.065-2.116c-3.11-4.197-6.136-8.546-8.991-12.926c-1.855-2.846-1.053-6.655,1.795-8.515
						c2.844-1.87,6.659-1.051,8.515,1.795c2.721,4.174,5.604,8.319,8.572,12.325c2.023,2.727,1.448,6.581-1.281,8.608
						C1997.413,2413.337,1996.893,2413.611,1996.354,2413.809z"/>
					
						<linearGradient id="SVGID_00000087398457576818269470000009006713651331378072_" gradientUnits="userSpaceOnUse" x1="1999.1949" y1="2471.0007" x2="2316.6897" y2="2471.0007" gradientTransform="matrix(0.9386 -0.3449 0.3449 0.9386 -815.3701 606.2055)">
						<stop  offset="0" style="stop-color:#DAE3FE"/>
						<stop  offset="1" style="stop-color:#E9EFFD"/>
					</linearGradient>
					<path style="fill:url(#SVGID_00000087398457576818269470000009006713651331378072_);" d="M1971.785,2373.348
						c-2.927,1.076-6.252-0.219-7.646-3.081c-3.944-8.084-7.516-16.465-10.617-24.903c-0.653-1.777-1.287-3.567-1.908-5.368
						c-1.103-3.218,0.821-6.659,3.819-7.824c3.214-1.104,6.714,0.606,7.821,3.817c0.592,1.723,1.198,3.434,1.821,5.131
						c2.958,8.05,6.365,16.042,10.123,23.752c1.491,3.056,0.222,6.737-2.831,8.23
						C1972.173,2373.192,1971.98,2373.276,1971.785,2373.348z M1951.023,2312.92c-0.273,0.1-0.559,0.186-0.849,0.249
						c-3.327,0.704-6.594-1.419-7.301-4.744c-2.267-10.666-3.891-21.568-4.826-32.396c-0.294-3.387,2.233-6.365,5.601-6.661
						c3.389-0.291,6.366,2.212,6.661,5.6c0.893,10.332,2.443,20.729,4.603,30.903
						C1955.554,2308.9,1953.849,2311.882,1951.023,2312.92z M1945.534,2249.263c-0.733,0.269-1.53,0.401-2.357,0.373
						c-3.396-0.129-6.042-2.992-5.913-6.388c0.42-10.878,1.522-21.853,3.287-32.61c0.549-3.359,3.705-5.625,7.069-5.076
						c3.352,0.548,5.626,3.715,5.077,7.066c-1.682,10.26-2.737,20.718-3.134,31.095
						C1949.464,2246.289,1947.805,2248.429,1945.534,2249.263z M1955.864,2186.202c-1.196,0.439-2.537,0.51-3.852,0.128
						c-3.26-0.96-5.129-4.383-4.169-7.643c3.079-10.466,6.833-20.827,11.163-30.805c1.355-3.116,4.984-4.54,8.095-3.192
						c3.118,1.351,4.548,4.974,3.196,8.096c-4.129,9.507-7.711,19.396-10.645,29.373
						C1959.079,2184.106,1957.632,2185.553,1955.864,2186.202z M1981.281,2127.579c-1.67,0.614-3.594,0.501-5.248-0.473
						c-2.927-1.722-3.903-5.493-2.182-8.424c5.527-9.387,11.683-18.525,18.302-27.154c2.066-2.706,5.931-3.21,8.628-1.14
						s3.208,5.934,1.14,8.627c-6.315,8.236-12.188,16.95-17.459,25.91C1983.71,2126.2,1982.57,2127.105,1981.281,2127.579z
						 M2020.152,2076.907c-2.163,0.795-4.689,0.333-6.443-1.391c-2.421-2.382-2.45-6.277-0.069-8.7
						c7.641-7.763,15.84-15.123,24.367-21.867c2.68-2.105,6.537-1.653,8.646,1.01c2.108,2.663,1.656,6.536-1.009,8.642
						c-8.133,6.433-15.947,13.446-23.231,20.847C2021.754,2076.12,2020.978,2076.604,2020.152,2076.907z M2070.218,2037.287
						c-2.707,0.995-5.827-0.029-7.377-2.584c-1.762-2.906-0.836-6.691,2.069-8.456c9.282-5.632,19.04-10.754,29.003-15.228
						c3.13-1.342,6.748-0.001,8.136,3.099c1.392,3.1,0.005,6.74-3.093,8.134c-9.507,4.261-18.813,9.147-27.663,14.518
						C2070.945,2036.982,2070.585,2037.153,2070.218,2037.287z M2159.628,2003.604c-0.333,0.122-0.684,0.219-1.048,0.283
						c-8.833,1.574-17.734,3.66-26.458,6.2c-1.324,0.378-2.619,0.764-3.906,1.166c-3.249,1.002-6.694-0.812-7.699-4.059
						c-1.012-3.252,0.797-6.798,4.056-7.701c1.375-0.422,2.749-0.837,4.137-1.232c9.116-2.651,18.447-4.838,27.71-6.487
						c3.347-0.596,6.541,1.631,7.136,4.977C2164.089,1999.731,2162.378,2002.594,2159.628,2003.604z"/>
				</g>
				<g>
					
						<linearGradient id="SVGID_00000080920534150246750100000011367761087552637312_" gradientUnits="userSpaceOnUse" x1="2140.8792" y1="2775.3643" x2="2503.2458" y2="2775.3643" gradientTransform="matrix(0.9386 -0.3449 0.3449 0.9386 -815.3701 606.2055)">
						<stop  offset="0" style="stop-color:#DAE3FE"/>
						<stop  offset="1" style="stop-color:#E9EFFD"/>
					</linearGradient>
					<path style="fill:url(#SVGID_00000080920534150246750100000011367761087552637312_);" d="M2297.965,2501.67
						c-3.153,1.158-6.664-0.433-7.869-3.582c-1.213-3.172,0.376-6.732,3.551-7.944c9.558-3.653,18.973-7.919,27.985-12.683
						c3-1.551,6.729-0.443,8.318,2.565c1.589,3.008,0.437,6.729-2.565,8.318c-9.454,4.991-19.323,9.468-29.341,13.297
						C2298.019,2501.65,2297.991,2501.661,2297.965,2501.67z M2267.936,2511.122c-0.209,0.077-0.419,0.141-0.639,0.196
						c-10.392,2.602-21.049,4.597-31.672,5.933c-3.374,0.42-6.448-1.965-6.871-5.337c-0.428-3.377,1.984-6.447,5.335-6.877
						c10.138-1.273,20.305-3.178,30.224-5.657c3.295-0.826,6.637,1.179,7.461,4.474
						C2272.545,2506.938,2270.846,2510.053,2267.936,2511.122z M2353.51,2472.298c-2.561,0.941-5.532,0.086-7.168-2.258
						c-1.941-2.782-1.26-6.618,1.527-8.564c8.394-5.862,16.501-12.279,24.096-19.084c2.546-2.26,6.423-2.052,8.689,0.483
						c2.267,2.528,2.053,6.422-0.478,8.69c-7.963,7.132-16.464,13.86-25.264,20
						C2354.466,2471.877,2353.996,2472.12,2353.51,2472.298z M2205.552,2518.921c-0.656,0.241-1.366,0.374-2.108,0.378
						c-10.72,0.027-21.55-0.61-32.186-1.894c-3.375-0.405-5.779-3.472-5.374-6.847c0.409-3.364,3.475-5.771,6.846-5.37
						c10.142,1.222,20.464,1.827,30.687,1.804c3.397-0.007,6.161,2.742,6.168,6.14
						C2209.59,2515.786,2207.91,2518.055,2205.552,2518.921z M2400.303,2430.373c-2.045,0.751-4.427,0.392-6.178-1.142
						c-2.562-2.24-2.819-6.128-0.583-8.685c6.726-7.683,13.05-15.858,18.797-24.308c1.913-2.816,5.742-3.538,8.552-1.625
						c2.809,1.913,3.538,5.742,1.625,8.552c-6.03,8.855-12.658,17.43-19.708,25.488
						C2402.105,2429.456,2401.237,2430.03,2400.303,2430.373z M2435.675,2378.445c-1.565,0.575-3.355,0.515-4.95-0.307
						c-3.019-1.56-4.204-5.273-2.644-8.292c4.699-9.096,8.887-18.554,12.448-28.109c1.188-3.189,4.735-4.807,7.916-3.619
						c3.185,1.186,4.803,4.727,3.617,7.909c-3.732,10.021-8.12,19.937-13.044,29.467
						C2438.283,2376.917,2437.068,2377.933,2435.675,2378.445z M2457.59,2319.533c-1.1,0.404-2.325,0.502-3.552,0.204
						c-3.306-0.79-5.343-4.113-4.551-7.419c2.391-9.95,4.186-20.137,5.338-30.272c0.388-3.369,3.435-5.802,6.811-5.415
						c3.377,0.385,5.802,3.431,5.419,6.812c-1.212,10.625-3.092,21.31-5.595,31.749
						C2460.958,2317.271,2459.457,2318.847,2457.59,2319.533z"/>
					
						<linearGradient id="SVGID_00000093857126820545171170000005956512467220341145_" gradientUnits="userSpaceOnUse" x1="2101.0452" y1="2798.0237" x2="2125.8274" y2="2798.0237" gradientTransform="matrix(0.9386 -0.3449 0.3449 0.9386 -815.3701 606.2055)">
						<stop  offset="0" style="stop-color:#DAE3FE"/>
						<stop  offset="1" style="stop-color:#E9EFFD"/>
					</linearGradient>
					<path style="fill:url(#SVGID_00000093857126820545171170000005956512467220341145_);" d="M2142.858,2511.348
						c-1.114,0.409-2.357,0.501-3.597,0.195c-5.113-1.265-10.21-2.689-15.155-4.227c-3.243-1.011-5.058-4.461-4.048-7.707
						c1.017-3.235,4.46-5.051,7.707-4.048c4.714,1.469,9.578,2.825,14.457,4.035c3.3,0.817,5.311,4.156,4.493,7.453
						C2146.203,2509.108,2144.711,2510.667,2142.858,2511.348z"/>
				</g>
				<g>
					<g>
						<path style="fill:#7D97F4;" d="M2120.243,2434.965c1.143,0.677,2.592,0.554,3.604-0.307l28.896-24.562
							c16.898,5.304,34.763,7.953,52.986,7.569l20.873,31.635c0.732,1.11,2.087,1.633,3.375,1.302l44.063-11.305
							c1.288-0.331,2.224-1.442,2.332-2.766l3.062-37.776c16.156-8.438,30.54-19.359,42.797-32.145l37.152,7.616
							c1.302,0.266,2.631-0.322,3.308-1.466l23.163-39.152c0.677-1.145,0.553-2.592-0.308-3.605l-24.562-28.896
							c5.305-16.898,7.953-34.764,7.569-52.987l31.635-20.872c1.11-0.732,1.633-2.087,1.302-3.375l-11.306-44.064
							c-0.33-1.288-1.441-2.224-2.766-2.331l-37.777-3.063c-8.437-16.157-19.359-30.54-32.144-42.796l7.615-37.154
							c0.266-1.302-0.322-2.63-1.466-3.307l-39.152-23.163c-1.144-0.677-2.592-0.553-3.604,0.308l-28.896,24.563
							c-16.897-5.306-34.763-7.953-52.986-7.569l-20.873-31.636c-0.732-1.109-2.087-1.633-3.375-1.302l-44.064,11.306
							c-1.288,0.33-2.223,1.441-2.331,2.766l-3.062,37.776c-16.157,8.437-30.541,19.359-42.797,32.145l-37.152-7.615
							c-1.303-0.268-2.631,0.322-3.308,1.466l-23.163,39.151c-0.676,1.144-0.554,2.592,0.308,3.605l24.562,28.896
							c-5.305,16.898-7.952,34.764-7.568,52.986l-31.636,20.872c-1.109,0.731-1.632,2.087-1.301,3.375l11.305,44.063
							c0.331,1.288,1.441,2.224,2.766,2.332l37.777,3.063c8.437,16.156,19.359,30.54,32.144,42.796l-7.615,37.153
							c-0.267,1.302,0.322,2.63,1.466,3.308L2120.243,2434.965z"/>
					</g>
					<path style="opacity:0.56;fill:#FFFFFF;" d="M2218.333,2295.212c-9.318,3.424-19.447,3.771-29.14,0.912
						c-11.924-3.519-21.764-11.473-27.707-22.395c-12.269-22.535-3.913-50.856,18.628-63.133
						c22.595-12.246,50.871-3.908,63.138,18.633c5.946,10.921,7.281,23.503,3.761,35.425c-3.518,11.927-11.47,21.769-22.396,27.711
						C2222.576,2293.474,2220.474,2294.425,2218.333,2295.212z M2190.578,2219.332c-1.554,0.571-3.083,1.261-4.581,2.074
						c-16.58,9.03-22.726,29.861-13.701,46.444c4.372,8.029,11.61,13.885,20.379,16.469c8.775,2.589,18.024,1.598,26.063-2.764l0,0
						c8.032-4.373,13.884-11.613,16.472-20.381c2.589-8.775,1.606-18.029-2.768-26.065
						C2224.233,2220.026,2206.245,2213.575,2190.578,2219.332z"/>
					<path style="opacity:0.56;fill:#FFFFFF;" d="M2242.856,2359.392c-3.655,1.343-7.407,2.51-11.255,3.501
						c-7.643,1.963-15.494,3.151-23.354,3.53c-0.353,0.014-0.707,0.029-1.06,0.043c-2.733,0.108-5.118-1.583-6.016-4.019
						c-0.218-0.592-0.346-1.23-0.372-1.892c-0.133-3.396,2.522-6.241,5.91-6.385c7.342-0.284,14.685-1.363,21.828-3.199l0.003-0.001
						c0.392-0.099,0.785-0.206,1.173-0.31c16.865-4.5,31.969-13.033,44.306-24.736c6.696-6.353,12.575-13.648,17.469-21.752
						c0.04-0.066,0.08-0.132,0.12-0.197c0.12-0.205,0.243-0.403,0.36-0.606c14.09-23.821,18.065-51.703,11.186-78.51
						c-0.888-3.47-1.946-6.865-3.165-10.182c-8.202-22.314-23.701-40.973-44.439-53.245c-23.821-14.091-51.701-18.06-78.506-11.182
						c-26.787,6.884-49.332,23.786-63.428,47.602c-14.091,23.82-18.065,51.703-11.186,78.51c0.873,3.412,1.92,6.766,3.126,10.049
						c5.234,14.237,13.521,27.165,24.317,37.834c0.665,0.658,1.149,1.428,1.449,2.252c0.796,2.166,0.334,4.698-1.398,6.449
						c-2.396,2.41-6.283,2.443-8.706,0.049c-12.079-11.939-21.354-26.406-27.21-42.327c-1.351-3.677-2.521-7.428-3.5-11.243
						c-7.696-29.996-3.25-61.189,12.518-87.841c15.767-26.646,40.944-45.577,70.957-53.255c29.992-7.697,61.184-3.255,87.835,12.517
						c23.202,13.723,40.54,34.6,49.716,59.565c1.362,3.706,2.548,7.509,3.543,11.387
						C2329.971,2279.866,2297.96,2339.145,2242.856,2359.392z"/>
				</g>
			</g>
		</g>
		<g>
			<path style="fill:#91B3FA;" d="M934.908,1453.601c40.597,76.969,103.872,143.022,186.452,187.028
				c151.636,80.806,328.67,66.14,462.253-22.976l-250.382-374.608L934.908,1453.601z"/>
			<path style="fill:#7D97F4;" d="M1583.612,1617.653c59.855-39.93,110.994-94.793,147.202-162.738
				c14.639-27.47,26.144-55.773,34.642-84.501l-432.225-127.369L1583.612,1617.653z"/>
			<path style="fill:#91B3FA;" d="M1765.456,1370.414c29.476-99.646,22.745-204.39-14.945-297.161l-417.28,169.792
				L1765.456,1370.414z"/>
			
				<linearGradient id="SVGID_00000053534440943575982550000011591144591372465572_" gradientUnits="userSpaceOnUse" x1="-1484.5381" y1="2537.9402" x2="-2338.9094" y2="1295.2173" gradientTransform="matrix(0.161 0.987 -0.987 0.161 3571.6509 2420.241)">
				<stop  offset="0" style="stop-color:#4F52FF"/>
				<stop  offset="1" style="stop-color:#4042E2"/>
			</linearGradient>
			<path style="fill:url(#SVGID_00000053534440943575982550000011591144591372465572_);" d="M1298.531,1224.555l29.938-449.624
				c-171.341-11.308-341.523,76.373-427.521,237.753c-73.006,136.999-68.088,294.737-0.739,422.426L1298.531,1224.555z"/>
			<path style="fill:#7D97F4;" d="M1750.51,1073.253c-16.876-41.538-39.961-80.67-68.792-115.871
				c-130.121,111.394-348.488,285.663-348.488,285.663L1750.51,1073.253z"/>
			<path style="fill:#91B3FA;" d="M1681.719,957.382c-36.605-44.693-82.451-83.055-136.618-111.921
				c-58.199-31.014-120.141-47.962-181.933-52.04l-29.937,449.624C1333.23,1243.045,1551.598,1068.776,1681.719,957.382z"/>
		</g>
		<g>
			
				<linearGradient id="SVGID_00000020373452212795978110000005151210656016642494_" gradientUnits="userSpaceOnUse" x1="1581.937" y1="2693.4009" x2="1580.0995" y2="3055.4395" gradientTransform="matrix(1 -0.0086 0.0086 1 142.0637 27.4933)">
				<stop  offset="0" style="stop-color:#4F52FF"/>
				<stop  offset="1" style="stop-color:#4042E2"/>
			</linearGradient>
			<path style="fill:url(#SVGID_00000020373452212795978110000005151210656016642494_);" d="M1971.526,2834.643
				c-0.876-9.807-10.974-18.216-28.008-24.88c18.359-10.331,28.47-21.321,27.516-32.007
				c-2.889-32.334-105.513-49.588-229.219-38.537c-123.705,11.051-221.647,46.221-218.758,78.554
				c0.875,9.809,10.974,18.216,28.008,24.88c-18.361,10.332-28.471,21.323-27.516,32.008c0.875,9.806,10.974,18.214,28.008,24.878
				c-18.361,10.331-28.471,21.323-27.516,32.008c0.875,9.807,10.974,18.216,28.008,24.878
				c-18.361,10.333-28.471,21.323-27.516,32.008c1.278,14.3,22.087,25.642,55.578,32.9c-0.342,10.579,0,22.167,1.149,34.954
				c5.358,59.581,72.826,105.749,161.527,104.982c88.703-0.766,164.923-65.169,165.279-124.989
				c0.086-14.659-0.649-27.556-2.075-39.011c42.318-14.539,68.016-32.074,66.518-48.855c-0.876-9.807-10.974-18.216-28.008-24.878
				c18.359-10.332,28.47-21.323,27.516-32.008c-0.876-9.807-10.974-18.216-28.008-24.878
				C1962.369,2856.318,1972.48,2845.328,1971.526,2834.643z"/>
			<g>
				<path style="fill:#91B3FA;" d="M1687.072,3033.287c-36.764,0.318-70.427-2.096-98.268-7.178
					c-1.616-0.294-2.686-1.843-2.392-3.458c0.294-1.613,1.836-2.686,3.458-2.39c43.564,7.95,101.669,9.284,163.615,3.75
					c50.687-4.529,98.052-13.119,136.974-24.844c1.576-0.474,3.232,0.416,3.704,1.989c0.474,1.573-0.416,3.23-1.989,3.704
					c-39.303,11.84-87.078,20.51-138.161,25.074C1731.006,3031.988,1708.512,3033.102,1687.072,3033.287z"/>
				<path style="fill:#91B3FA;" d="M1687.198,2976.343c-47.768,0.413-90.493-3.711-120.678-12.025
					c-1.583-0.435-2.512-2.072-2.078-3.655c0.438-1.584,2.069-2.511,3.656-2.077c43.012,11.847,112.13,15.037,184.895,8.538
					c71.977-6.43,139.026-21.626,179.355-40.652c1.487-0.698,3.258-0.064,3.959,1.421c0.699,1.486,0.064,3.258-1.421,3.958
					c-40.929,19.306-108.729,34.707-181.365,41.195C1730.857,2975.07,1708.523,2976.159,1687.198,2976.343z"/>
				<path style="fill:#91B3FA;" d="M1686.095,2919.503c-51.575,0.446-96.754-4.44-127.218-14.195
					c-1.566-0.5-2.426-2.175-1.926-3.738c0.5-1.564,2.168-2.427,3.738-1.926c42.394,13.574,114.101,17.531,191.813,10.591
					c71.972-6.428,139.021-21.626,179.355-40.653c1.487-0.697,3.258-0.063,3.959,1.421c0.699,1.486,0.064,3.258-1.421,3.958
					c-40.933,19.307-108.733,34.709-181.364,41.197C1730.016,2918.216,1707.502,2919.318,1686.095,2919.503z"/>
				<path style="fill:#91B3FA;" d="M1686,2862.587c-40.911,0.354-78.15-2.633-107.134-8.811c-1.606-0.343-2.631-1.922-2.288-3.527
					c0.342-1.607,1.928-2.633,3.528-2.288c43.583,9.29,106.242,11.252,171.905,5.386c71.332-6.372,138.039-21.407,178.442-40.223
					c1.487-0.697,3.256-0.048,3.949,1.441c0.694,1.488,0.049,3.257-1.441,3.951c-40.992,19.09-108.44,34.323-180.421,40.753
					C1729.797,2861.304,1707.395,2862.402,1686,2862.587z"/>
			</g>
			
				<linearGradient id="SVGID_00000037679580722210668540000002714454367712869027_" gradientUnits="userSpaceOnUse" x1="1832.1111" y1="2878.3674" x2="1710.6779" y2="1512.2422">
				<stop  offset="0" style="stop-color:#FF928E"/>
				<stop  offset="1" style="stop-color:#FE7062"/>
			</linearGradient>
			<path style="fill:url(#SVGID_00000037679580722210668540000002714454367712869027_);" d="M1437.669,2552.079
				c-15.496-53.123-41.463-102.669-76.231-145.719c-74.498-92.241-196.354-280.089-213.38-537.759
				c-24.764-374.792,306.176-565.401,609.864-542.537c303.689,22.864,605.088,246.231,575.321,595.358
				c-18.316,214.818-137.048,378.667-225.69,472.941c-56.287,59.865-96.176,132.936-117.424,212.313
				c-26.007,97.154-88.847,218.489-240.627,227.163C1553.101,2845.064,1469.915,2662.627,1437.669,2552.079z"/>
			
				<linearGradient id="SVGID_00000110454942529475908690000011352472149308693909_" gradientUnits="userSpaceOnUse" x1="1693.6907" y1="2252.5574" x2="1737.2964" y2="3638.033" gradientTransform="matrix(1 -0.0086 0.0086 1 142.0637 27.4933)">
				<stop  offset="0" style="stop-color:#E1473D"/>
				<stop  offset="1" style="stop-color:#E9605A"/>
			</linearGradient>
			<path style="fill:url(#SVGID_00000110454942529475908690000011352472149308693909_);" d="M1799.045,2758.628l100.216-691.544
				c2.07-14.286,9.008-23.929,15.498-21.537c6.489,2.393,10.072,15.914,8.002,30.201c-0.056,0.381-0.13,0.851-0.193,1.225
				l-115.038,685.254c-0.865,5.153-3.451,8.425-5.774,7.309C1799.502,2768.453,1798.325,2763.617,1799.045,2758.628z"/>
			
				<linearGradient id="SVGID_00000155126312808216107930000016901928634157315732_" gradientUnits="userSpaceOnUse" x1="1453.4889" y1="2260.1294" x2="1497.0941" y2="3645.5898" gradientTransform="matrix(1 -0.0086 0.0086 1 142.0637 27.4933)">
				<stop  offset="0" style="stop-color:#E1473D"/>
				<stop  offset="1" style="stop-color:#E9605A"/>
			</linearGradient>
			<path style="fill:url(#SVGID_00000155126312808216107930000016901928634157315732_);" d="M1688.87,2765.065l-112.152-689.709
				c-2.316-14.248-9.422-23.77-15.867-21.266c-6.447,2.505-9.795,16.085-7.479,30.335c0.062,0.379,0.144,0.849,0.214,1.221
				l126.863,683.164c0.954,5.137,3.596,8.364,5.899,7.208C1688.582,2774.895,1689.675,2770.04,1688.87,2765.065z"/>
			<path style="opacity:0.78;fill:#FFFFFF;" d="M1897.986,2007.794c-2.734-4.313-8.988-5.879-13.97-3.499l-58.887,28.137
				l-21.029-58.3c-1.112-3.041-3.652-5.724-7.252-7.172c-6.825-2.744-14.938-0.168-18.12,5.757l-0.102,0.191l-47.858,89.076
				l-46.211-125.817l-0.077-0.209c-1.131-3.071-3.484-5.818-6.896-7.642c-7.602-4.065-17.579-2.009-22.288,4.59l-67.168,94.167
				c-2.732,3.859-1.736,8.99,2.496,11.788c4.519,2.989,10.986,2.229,14.443-1.695l59.276-67.283l54.925,119.593l0.042,0.092
				c0.88,1.913,2.521,3.575,4.788,4.612c5.077,2.324,11.376,0.636,14.07-3.771l51.283-83.899l19.937,42.038l0.176,0.374
				c0.144,0.302,0.308,0.6,0.495,0.893c2.731,4.309,8.98,5.874,13.958,3.495l69.899-33.399
				C1898.897,2017.533,1900.72,2012.107,1897.986,2007.794z"/>
			<path style="opacity:0.49;fill:#FFFFFF;" d="M2109.138,2310.86c-3.945,0.034-7.931-1.152-11.359-3.649
				c-8.489-6.188-10.357-18.088-4.169-26.583c17.75-24.351,33.989-49.487,48.269-74.712c5.173-9.143,16.776-12.358,25.925-7.185
				s12.364,16.782,7.185,25.925c-14.994,26.494-32.027,52.864-50.628,78.386C2120.671,2308.104,2114.954,2310.81,2109.138,2310.86z"
				/>
			<path style="opacity:0.49;fill:#FFFFFF;" d="M2195.199,2160.196c-2.527,0.022-5.101-0.464-7.581-1.514
				c-9.672-4.103-14.191-15.268-10.088-24.946c109.01-257.115,11.401-470.925,10.398-473.059
				c-4.461-9.512-0.366-20.837,9.152-25.304c9.536-4.449,20.85-0.36,25.304,9.152c4.366,9.32,105.75,231.471-9.821,504.064
				C2209.511,2155.786,2202.55,2160.132,2195.199,2160.196z"/>
		</g>
		<g>
			<g>
				
					<linearGradient id="SVGID_00000104708153896508779380000002769229392627710125_" gradientUnits="userSpaceOnUse" x1="-2141.2192" y1="1582.1542" x2="-2039.3773" y2="1837.6223" gradientTransform="matrix(-1 0 0 1 -1165.4333 0)">
					<stop  offset="0" style="stop-color:#09005D"/>
					<stop  offset="1" style="stop-color:#1A0F91"/>
				</linearGradient>
				<path style="fill:url(#SVGID_00000104708153896508779380000002769229392627710125_);" d="M915.4,1719.575
					c0,0-34.334,16.7-40.646,35.884c-5.065,15.393-43.029,17.377-46.779,47.651c-1.936,15.63-13.503,28.148-29.07,30.534
					c-38.773,5.943-98.527,26.077-108.088,93.397c-7.298,51.384,18.897,70.868,46.388,77.612
					c20.191,4.953,33.609,24.593,29.525,44.978c-3.917,19.552,1.924,42.155,35.797,60.029
					c75.906,40.053,151.711-94.889,151.711-94.889l15.535-235.618L915.4,1719.575z"/>
				
					<linearGradient id="SVGID_00000100367114183650415490000017893782414438362024_" gradientUnits="userSpaceOnUse" x1="-2480.5278" y1="1399.3203" x2="-2292.3835" y2="1827.3907" gradientTransform="matrix(-0.9776 -0.2106 -0.2106 0.9776 -915.0133 -113.5247)">
					<stop  offset="0" style="stop-color:#FEBBBA"/>
					<stop  offset="1" style="stop-color:#FF928E"/>
				</linearGradient>
				<path style="fill:url(#SVGID_00000100367114183650415490000017893782414438362024_);" d="M1328.429,1663.718
					c0,0-151.557,239.722-331.777,286.024c0,0,35.116,100.018,62.221,111.465c0,0,221.721-185.001,278.7-363.426L1328.429,1663.718z
					"/>
				
					<linearGradient id="SVGID_00000173855498823822603980000000456074227992464319_" gradientUnits="userSpaceOnUse" x1="-1768.929" y1="3217.688" x2="-1682.5709" y2="3217.688" gradientTransform="matrix(-1 0 0 1 -1165.4333 0)">
					<stop  offset="0" style="stop-color:#09005D"/>
					<stop  offset="1" style="stop-color:#1A0F91"/>
				</linearGradient>
				<path style="fill:url(#SVGID_00000173855498823822603980000000456074227992464319_);" d="M603.393,3196.977l-4.912,40.38
					c-0.932,7.66-6.963,13.718-14.63,14.594c-12.945,1.479-33.718,2.994-54.043,0.846c-8.921-0.943-14.713-9.977-11.995-18.526
					c4.955-15.588,14.019-38.989,27.088-52.76h44.794C597.976,3181.511,604.393,3188.755,603.393,3196.977z"/>
				
					<linearGradient id="SVGID_00000010994873474522868840000016588336607447533184_" gradientUnits="userSpaceOnUse" x1="-2133.8359" y1="3558.2366" x2="-2009.5607" y2="2105.7668" gradientTransform="matrix(-1 0 0 1 -1165.4333 0)">
					<stop  offset="0" style="stop-color:#FEBBBA"/>
					<stop  offset="1" style="stop-color:#FF928E"/>
				</linearGradient>
				<path style="fill:url(#SVGID_00000010994873474522868840000016588336607447533184_);" d="M954.238,2723.947l7.561,44.475
					c0,0-25.319,256.46-29.823,359.043c-0.706,16.083,3.455,31.977,11.896,45.685l44.025,71.493l-111.89-66.025l-2.227-13.654
					l18.316-25.184l-23.992-287.298c-1.409-16.877,2.073-33.804,10.031-48.754l23.144-43.478L954.238,2723.947z"/>
				
					<linearGradient id="SVGID_00000109019703081115833870000008416380882967401359_" gradientUnits="userSpaceOnUse" x1="-2170.1409" y1="3201.9214" x2="-2030.4069" y2="3201.9214" gradientTransform="matrix(-1 0 0 1 -1165.4333 0)">
					<stop  offset="0" style="stop-color:#09005D"/>
					<stop  offset="1" style="stop-color:#1A0F91"/>
				</linearGradient>
				<path style="fill:url(#SVGID_00000109019703081115833870000008416380882967401359_);" d="M995.266,3255h-35.706
					c-6.683,0-12.987-3.069-17.063-8.365c-11.131-14.464-34.194-42.683-45.221-43.419c-14.845-0.991-12.946,51.784-12.946,51.784
					h-8.321l-10.54-65.58c-2.652-16.5,5.554-32.846,20.371-40.577c0,0,3.394,25.096,21.794,36.197s74.878,50.855,74.878,50.855
					s6.917-0.986,14.512,0.386C1008.288,3238.317,1006.714,3255,995.266,3255z"/>
				
					<linearGradient id="SVGID_00000065060089070281369700000003018415463143309458_" gradientUnits="userSpaceOnUse" x1="-1883.8484" y1="3579.8484" x2="-1759.5403" y2="2126.9971" gradientTransform="matrix(-1 0 0 1 -1165.4333 0)">
					<stop  offset="0" style="stop-color:#FEBBBA"/>
					<stop  offset="1" style="stop-color:#FF928E"/>
				</linearGradient>
				<path style="fill:url(#SVGID_00000065060089070281369700000003018415463143309458_);" d="M800.986,2745.07
					c0,0-148.326,281.36-171.904,345.599c-23.578,64.239-31.838,117.829-32.154,122.904c-0.494,7.93-10.357,15.535-37.544,15.535
					c-14.03,0-20.902-5.624-24.266-11.068c-2.871-4.645-3.019-10.456-0.6-15.351c8.58-17.364,35.808-72.855,45.892-98.023
					c12.04-30.05,37.938-166.229,52.142-213.578c14.203-47.348,30.258-98.708,92.112-146.018
					C724.663,2745.07,767.123,2703.484,800.986,2745.07z"/>
				
					<linearGradient id="SVGID_00000132069467227112022300000017975307631537970109_" gradientUnits="userSpaceOnUse" x1="-2130.7659" y1="2093.5105" x2="-2068.6255" y2="2670.04" gradientTransform="matrix(-1 0 0 1 -1165.4333 0)">
					<stop  offset="0" style="stop-color:#4F52FF"/>
					<stop  offset="1" style="stop-color:#4042E2"/>
				</linearGradient>
				<path style="fill:url(#SVGID_00000132069467227112022300000017975307631537970109_);" d="M894.686,2284.048
					c38.261-162.129-58.666-253.827-58.666-253.827c61.159-58.706,172.591-85.42,172.591-85.42s106.33,77.737,93.716,138.583
					c-7.393,35.662-74.74,213.61-74.74,213.61S965.312,2326.466,894.686,2284.048z"/>
				
					<linearGradient id="SVGID_00000008120878699410321050000002807941435565181622_" gradientUnits="userSpaceOnUse" x1="1357.7961" y1="2063.1218" x2="-139.9577" y2="3641.8333">
					<stop  offset="0" style="stop-color:#09005D"/>
					<stop  offset="1" style="stop-color:#1A0F91"/>
				</linearGradient>
				<path style="fill:url(#SVGID_00000008120878699410321050000002807941435565181622_);" d="M809.855,2364.313
					c15.571-46.909,84.831-80.265,84.831-80.265c70.626,42.419,132.901,12.946,132.901,12.946s13.966,53.382,4.327,102.992
					c-9.639,49.61-70.115,368.436-70.115,368.436c-95.29,19.308-241.845-19.426-241.845-19.426
					C780.65,2641.234,794.284,2411.222,809.855,2364.313z"/>
				
					<linearGradient id="SVGID_00000119118790086488873260000010874084434002699699_" gradientUnits="userSpaceOnUse" x1="-2147.4648" y1="2126.5364" x2="-2124.1201" y2="1955.7521" gradientTransform="matrix(-1 0 0 1 -1165.4333 0)">
					<stop  offset="0" style="stop-color:#FEBBBA"/>
					<stop  offset="1" style="stop-color:#FF928E"/>
				</linearGradient>
				<path style="fill:url(#SVGID_00000119118790086488873260000010874084434002699699_);" d="M939.098,1837.661l-31.107,139.728
					c-2.978,12.307,8.241,10.293,20.685,7.947c20.378-3.842,46.641-11.754,55.421-27.611c0.894-1.614,1.34-3.438,1.592-5.266
					l13.364-96.891c1.06-7.687-3.095-15.148-10.189-18.293l-25.789-11.435C953.145,1821.438,941.653,1827.104,939.098,1837.661z"/>
				
					<linearGradient id="SVGID_00000043458481274105272250000009528103526964831897_" gradientUnits="userSpaceOnUse" x1="498.8634" y1="2288.8335" x2="1025.9325" y2="2068.3406">
					<stop  offset="0" style="stop-color:#FEBBBA"/>
					<stop  offset="1" style="stop-color:#FF928E"/>
				</linearGradient>
				<path style="fill:url(#SVGID_00000043458481274105272250000009528103526964831897_);" d="M836.02,2030.221
					c0,0-300.252,297.226,135.189,178.58c0,0,4.966-37.571-1.515-36.924c-141.205,14.087-200.265,46.416-85.48-64.888
					c4.058-3.935,2.804-18.789,0.194-23.803C876.459,2067.918,858.282,2037.598,836.02,2030.221z"/>
				<g>
					
						<linearGradient id="SVGID_00000105402517725266140650000009583801842871109813_" gradientUnits="userSpaceOnUse" x1="-2315.2051" y1="1600.8346" x2="-2111.5127" y2="1238.3304" gradientTransform="matrix(-0.9809 -0.1943 -0.1943 0.9809 -936.3432 -99.2406)">
						<stop  offset="0" style="stop-color:#FEBBBA"/>
						<stop  offset="1" style="stop-color:#FF928E"/>
					</linearGradient>
					<path style="fill:url(#SVGID_00000105402517725266140650000009583801842871109813_);" d="M998.68,1710.285
						c0,0,33.117,22.418,47.348,79.507c14.231,57.089-8.896,77.568-32.601,76.313c-23.705-1.255-58.077-8.586-87.857-49.542
						C895.79,1775.606,955.283,1682.892,998.68,1710.285z"/>
					
						<linearGradient id="SVGID_00000057865219153065922100000000326163199613078696_" gradientUnits="userSpaceOnUse" x1="-2271.3992" y1="1285.1511" x2="-2169.5532" y2="1540.6299" gradientTransform="matrix(-0.9809 -0.1943 -0.1943 0.9809 -936.3432 -99.2406)">
						<stop  offset="0" style="stop-color:#09005D"/>
						<stop  offset="1" style="stop-color:#1A0F91"/>
					</linearGradient>
					<path style="fill:url(#SVGID_00000057865219153065922100000000326163199613078696_);" d="M955.602,1793.536
						c0,0-12.134-81.804,55.784-69.292l13.733,14.298c0,0,33.244-37.439-3.545-65.739c-36.789-28.3-87.841-21.053-116.086,30.469
						c-28.245,51.521-38.495,87.725-14.821,119.74c23.674,32.015,41.482,4.557,41.482,4.557s-10.857-27.709-1.849-39.599
						s20.631,6.915,20.631,6.915L955.602,1793.536z"/>
					
						<linearGradient id="SVGID_00000011716379454389878520000017918607872946885000_" gradientUnits="userSpaceOnUse" x1="-2271.8477" y1="1625.2006" x2="-2068.155" y2="1262.6964" gradientTransform="matrix(-0.9809 -0.1943 -0.1943 0.9809 -936.3432 -99.2406)">
						<stop  offset="0" style="stop-color:#FEBBBA"/>
						<stop  offset="1" style="stop-color:#FF928E"/>
					</linearGradient>
					<path style="fill:url(#SVGID_00000011716379454389878520000017918607872946885000_);" d="M946.32,1800.541
						c0,0-5.991-42.088-27.486-30.056c-21.495,12.031,7.747,39.316,19.471,48.599L946.32,1800.541z"/>
				</g>
				<g>
					
						<linearGradient id="SVGID_00000064324560448156295830000011602716857675302533_" gradientUnits="userSpaceOnUse" x1="-2517.7085" y1="1415.6622" x2="-2329.5645" y2="1843.7328" gradientTransform="matrix(-0.9776 -0.2106 -0.2106 0.9776 -915.0133 -113.5247)">
						<stop  offset="0" style="stop-color:#FEBBBA"/>
						<stop  offset="1" style="stop-color:#FF928E"/>
					</linearGradient>
					<path style="fill:url(#SVGID_00000064324560448156295830000011602716857675302533_);" d="M1327.387,1713.068
						c0.459,4.945-17.93,8.362-23.782-12.718c1.609-9.152,4.466-49.232,11.483-55.458c37.375-33.163,104.023-70.469,104.023-70.469
						c7.454,11.38-2.322,18.875-2.322,18.875l-33.269,22.452c3.47,11.495,8.535,21.657,9.108,34.78
						c0.434,9.938-3.237,19.667-9.833,27.205c-6.621,7.565-15.534,17.333-23.569,24.749
						C1344.018,1716.521,1327.387,1713.068,1327.387,1713.068z"/>
					
						<linearGradient id="SVGID_00000070090739013963549060000006593413026637604514_" gradientUnits="userSpaceOnUse" x1="1323.8053" y1="1662.4979" x2="1374.4673" y2="1662.4979">
						<stop  offset="0" style="stop-color:#FEBBBA"/>
						<stop  offset="1" style="stop-color:#FF928E"/>
					</linearGradient>
					<path style="fill:url(#SVGID_00000070090739013963549060000006593413026637604514_);" d="M1345.458,1696.73l-5.085-2.092
						c0.676-1.645,16.641-40.441,24.363-48.511c2.935-3.062,4.351-5.684,4.22-7.798c-0.065-1.144-0.632-2.274-1.707-3.425
						l-26.919,14.397l-11.891,18.617l-4.634-2.964l12.661-19.83l31.532-16.859l1.424,1.159c3.189,2.608,4.838,5.408,5.026,8.568
						c0.232,3.763-1.642,7.667-5.731,11.942C1362.899,1656.01,1349.955,1685.773,1345.458,1696.73z"/>
				</g>
			</g>
			<g>
				
					<linearGradient id="SVGID_00000077315207264635715020000014580375193893793941_" gradientUnits="userSpaceOnUse" x1="1081.2805" y1="1977.4318" x2="1252.1454" y2="2689.3706">
					<stop  offset="0" style="stop-color:#09005D"/>
					<stop  offset="1" style="stop-color:#1A0F91"/>
				</linearGradient>
				<path style="fill:url(#SVGID_00000077315207264635715020000014580375193893793941_);" d="M953.653,2270.11l72.664-253.761
					c0.825-2.881,3.282-4.982,6.258-5.329c13.166-1.536,51.314-5.848,95.361-9.574c53.055-4.488,114.668-8.124,151.486-5.031
					c5.234,0.44,8.397,5.976,6.07,10.685c-20.937,42.358-107.058,214.661-150.186,271.105c-1.429,1.87-3.638,2.963-5.991,2.941
					l-168.594-1.568C955.816,2279.533,952.302,2274.826,953.653,2270.11z"/>
				<path style="fill:#91B3FA;" d="M1135.474,1979.446l52.683-8.778c2.806-0.468,5.104,2.214,4.212,4.915l-5.215,15.803
					c-0.454,1.376-1.654,2.371-3.09,2.563l-50.697,6.772c-2.623,0.35-4.785-2.033-4.182-4.609l3.229-13.797
					C1132.761,1980.828,1133.968,1979.697,1135.474,1979.446z"/>
				<path style="fill:#91B3FA;" d="M1096.026,2024.047l4.34-22.607c0.435-2.268,2.307-3.981,4.604-4.214l106.408-10.798
					c3.582-0.363,6.449,2.919,5.609,6.419l-6.766,28.17c-0.541,2.254-2.503,3.882-4.818,3.999l-103.982,5.234
					C1098.036,2030.421,1095.387,2027.375,1096.026,2024.047z"/>
				
					<linearGradient id="SVGID_00000091009925571209921560000018070648601128155029_" gradientUnits="userSpaceOnUse" x1="964.199" y1="2165.7776" x2="1061.0072" y2="2165.7776">
					<stop  offset="0" style="stop-color:#FEBBBA"/>
					<stop  offset="1" style="stop-color:#FF928E"/>
				</linearGradient>
				<path style="fill:url(#SVGID_00000091009925571209921560000018070648601128155029_);" d="M971.208,2208.801
					c0,0-10.122-41.622-6.039-56.389c4.083-14.767,11.994-33.753,38.363-29.534c26.369,4.219,57.474,15.327,57.474,15.327
					s-1.571,19.235-21.612,13.029l12.427,9.616c0,0-1.776,15.401-18.704,7.173l11.559,12.753c0,0-7.27,12.649-19.724,4.536
					C1012.498,2177.199,1006.528,2213.813,971.208,2208.801z"/>
			</g>
		</g>
		<g>
			<g>
				
					<ellipse transform="matrix(0.7071 -0.7071 0.7071 0.7071 -134.4113 2093.8213)" style="fill:#BDD0FB;" cx="2460.26" cy="1209.159" rx="557.748" ry="557.748"/>
				<g>
					
						<linearGradient id="SVGID_00000094583110485457050880000014036983637401027753_" gradientUnits="userSpaceOnUse" x1="2874.9585" y1="658.5805" x2="1803.1498" y2="2081.5801">
						<stop  offset="0" style="stop-color:#4F52FF"/>
						<stop  offset="1" style="stop-color:#4042E2"/>
					</linearGradient>
					
						<circle style="fill:url(#SVGID_00000094583110485457050880000014036983637401027753_);" cx="2460.26" cy="1209.16" r="476.017"/>
					<path style="fill:#FFFFFF;" d="M2460.26,1709.019c-275.621,0-499.857-224.234-499.857-499.859S2184.638,709.3,2460.26,709.3
						s499.857,224.234,499.857,499.859S2735.881,1709.019,2460.26,1709.019z M2460.26,733.143
						c-262.476,0-476.014,213.538-476.014,476.016c0,262.478,213.538,476.016,476.014,476.016s476.014-213.538,476.014-476.016
						C2936.273,946.681,2722.736,733.143,2460.26,733.143z"/>
				</g>
				<g>
					
						<linearGradient id="SVGID_00000017487050421346533390000000365752104886530193_" gradientUnits="userSpaceOnUse" x1="2874.9583" y1="658.5806" x2="1803.1512" y2="2081.5779">
						<stop  offset="0" style="stop-color:#4F52FF"/>
						<stop  offset="1" style="stop-color:#4042E2"/>
					</linearGradient>
					
						<circle style="fill:url(#SVGID_00000017487050421346533390000000365752104886530193_);" cx="2460.26" cy="1209.159" r="290.202"/>
					<path style="fill:#FFFFFF;" d="M2460.26,1523.205c-173.164,0-314.044-140.882-314.044-314.046s140.88-314.042,314.044-314.042
						c173.165,0,314.044,140.878,314.044,314.042S2633.424,1523.205,2460.26,1523.205z M2460.26,942.8
						c-146.872,0-266.361,119.487-266.361,266.359s119.489,266.363,266.361,266.363c146.872,0,266.361-119.492,266.361-266.363
						S2607.132,942.8,2460.26,942.8z"/>
				</g>
				<g>
					
						<linearGradient id="SVGID_00000178917412852178562860000005431920751930742689_" gradientUnits="userSpaceOnUse" x1="2874.9583" y1="658.5806" x2="1803.1519" y2="2081.5769">
						<stop  offset="0" style="stop-color:#4F52FF"/>
						<stop  offset="1" style="stop-color:#4042E2"/>
					</linearGradient>
					
						<circle style="fill:url(#SVGID_00000178917412852178562860000005431920751930742689_);" cx="2460.26" cy="1209.16" r="112.433"/>
					<path style="fill:#FFFFFF;" d="M2460.26,1345.435c-75.142,0-136.274-61.132-136.274-136.276s61.132-136.276,136.274-136.276
						c75.142,0,136.276,61.132,136.276,136.276S2535.402,1345.435,2460.26,1345.435z M2460.26,1120.566
						c-48.849,0-88.591,39.742-88.591,88.593s39.742,88.593,88.591,88.593c48.849,0,88.593-39.742,88.593-88.593
						S2509.109,1120.566,2460.26,1120.566z"/>
				</g>
			</g>
			<g>
				
					<linearGradient id="SVGID_00000179623409330100051410000017074624722199937197_" gradientUnits="userSpaceOnUse" x1="-14.7539" y1="4924.2622" x2="-184.8233" y2="5615.1665" gradientTransform="matrix(-0.7071 -0.7071 0.7071 -0.7071 -1192.2574 4633.1733)">
					<stop  offset="0" style="stop-color:#09005D"/>
					<stop  offset="1" style="stop-color:#1A0F91"/>
				</linearGradient>
				<polygon style="fill:url(#SVGID_00000179623409330100051410000017074624722199937197_);" points="3136.414,531.253 
					3151.446,546.285 2582.224,1115.507 2567.191,1100.476 				"/>
				
					<linearGradient id="SVGID_00000056404694135324408200000007792854815400092586_" gradientUnits="userSpaceOnUse" x1="-159.7676" y1="5069.4888" x2="-211.7353" y2="5626.9648" gradientTransform="matrix(-0.7071 -0.7071 0.7071 -0.7071 -1192.2574 4633.1733)">
					<stop  offset="0" style="stop-color:#FF928E"/>
					<stop  offset="1" style="stop-color:#FE7062"/>
				</linearGradient>
				<path style="fill:url(#SVGID_00000056404694135324408200000007792854815400092586_);" d="M2577.838,1064.205
					c8.624-8.624,49.28,32.032,40.655,40.655l-150.79,118.544c-5.571,4.379-12.789-2.839-8.409-8.41L2577.838,1064.205z"/>
				<path style="fill:#91B3FA;" d="M3151.121,546.61l76.578,7.611l-105.127,105.127c-34.444,34.444-82.522,51.622-130.994,46.804
					l0,0L3151.121,546.61z"/>
				<path style="fill:#91B3FA;" d="M3136.089,531.578L3128.478,455l-105.127,105.127c-34.444,34.444-51.622,82.521-46.804,130.994
					l0,0L3136.089,531.578z"/>
			</g>
		</g>
	</g>
</g>
</svg>
